<!-- <svg height="80" width="100" version="1.1" id="Layer_1" xmlns="http://www.w3.org/2000/svg" xmlns:xlink="http://www.w3.org/1999/xlink" x="0px" y="0px"
	 viewBox="0 0 296 281" style="enable-background:new 0 0 296 281;" xml:space="preserve">
<style type="text/css">
	.st0{fill:#FFFFFF;}
	.st1{fill:#F17808;}
	.st2{fill:#F07939;}
	.st3{fill:#12947F;}
	.st4{fill-rule:evenodd;clip-rule:evenodd;fill:#FFFFFF;}
	.st5{fill:#12947F;stroke:#F17808;stroke-width:3;stroke-miterlimit:10;}
	.st6{fill:#C7D4DB;stroke:#C7D4DB;stroke-width:2;stroke-miterlimit:10;}
	.st7{fill:#DDE5E8;}
</style>
<symbol  id="New_Symbol_1" viewBox="-82.27 -170.57 164.54 341.15">
	<g>
		<g>
			<path class="st0" d="M53.89-170.57l-107.78,0c-15.61,0-28.38,12.77-28.38,28.38l0,284.39c0,15.61,12.77,28.38,28.38,28.38
				l107.78,0c15.61,0,28.38-12.77,28.38-28.38l0-284.39C82.27-157.8,69.5-170.57,53.89-170.57z"/>
			<rect x="-74.39" y="-128.48" class="st1" width="148.86" height="257.85"/>
		</g>
		<g>
			<g>
				
					<ellipse transform="matrix(0.4296 -0.903 0.903 0.4296 134.9325 -85.2307)" class="st1" cx="0" cy="-149.42" rx="12.02" ry="12.02"/>
			</g>
		</g>
	</g>
</symbol>
<symbol  id="New_Symbol_2" viewBox="-81.78 -170.26 163.57 340.51">
	<g>
		<g>
			<path class="st0" d="M53.4-170.26l-106.81,0c-15.61,0-28.38,12.77-28.38,28.38l0,283.75c0,15.61,12.77,28.38,28.38,28.38
				l106.81,0c15.61,0,28.38-12.77,28.38-28.38l0-283.75C81.78-157.49,69.01-170.26,53.4-170.26z"/>
			<rect x="-73.95" y="-128.24" class="st2" width="147.98" height="257.37"/>
		</g>
		<g>
			<ellipse class="st2" cx="0" cy="-149.15" rx="11.95" ry="12"/>
		</g>
	</g>
</symbol>
<rect x="-631" y="-84" class="st3" width="500" height="499"/>
<g>
	<path class="st2" d="M-418.91,6.93c12.05,12.7,11.54,32.76-1.16,44.81c-12.69,12.05-32.76,11.53-44.81-1.16
		c-12.05-12.7-11.53-32.76,1.16-44.81C-451.02-6.29-430.96-5.77-418.91,6.93z"/>
	<g>
		<path class="st2" d="M-444.22,40.57c9.4,9.9,9,25.55-0.91,34.96c-9.9,9.4-25.55,8.99-34.95-0.91c-9.4-9.9-9-25.55,0.9-34.95
			C-469.27,30.26-453.62,30.67-444.22,40.57z"/>
		<path class="st2" d="M-394.11-7c9.4,9.9,9,25.55-0.9,34.95c-9.9,9.4-25.55,9-34.96-0.91c-9.4-9.9-9-25.55,0.91-34.96
			C-419.16-17.31-403.51-16.91-394.11-7z"/>
	</g>
	
		<rect x="-447.69" y="29.01" transform="matrix(0.7252 -0.6885 0.6885 0.7252 -154.8931 -266.691)" class="st2" width="72.27" height="63.4"/>
</g>
<g>
	<path class="st2" d="M224,92.36c0,41.62-33.73,75.36-75.36,75.36c-41.62,0-75.35-33.74-75.35-75.36
		c0-41.62,33.74-75.36,75.35-75.36C190.26,17,224,50.74,224,92.36z"/>
	<g>
		<path class="st2" d="M125.29,108.93c0,32.46-26.32,58.78-58.79,58.78c-32.46,0-58.77-26.32-58.77-58.78
			c0-32.46,26.31-58.78,58.77-58.78C98.97,50.15,125.29,76.47,125.29,108.93z"/>
		<path class="st2" d="M289.56,108.93c0,32.46-26.32,58.78-58.77,58.78c-32.46,0-58.78-26.32-58.78-58.78
			c0-32.46,26.32-58.78,58.78-58.78C263.24,50.15,289.56,76.47,289.56,108.93z"/>
	</g>
	<rect x="62.73" y="121.75" class="st2" width="171.82" height="150.71"/>
</g>
<rect x="-111" y="-604" class="st3" width="510" height="499"/>
<rect x="-629" y="-604" class="st3" width="497" height="499"/>
<rect x="-1153" y="-574" class="st3" width="434" height="225"/>
<g>
	<path class="st4" d="M-1009.45-489.92c0-31.78-25.74-57.54-57.5-57.54c-31.76,0-57.5,25.76-57.5,57.54
		c0,30.78,24.15,55.91,54.52,57.46v-29.65c0-4.77-9.92-7.3-9.92-14.89c1.23-15.61,2.45-31.22,3.67-46.82
		c0.54-0.31,1.08-0.61,1.62,0.02c0.27,14.17,0.55,28.34,0.83,42.51c0.47,0.89,1.04,0.89,1.74-0.01c0.36-14.14,0.71-28.28,1.07-42.42
		c0.6-0.69,1.11-0.68,1.87,0.03c0.37,14.13,0.91,28.26,1.27,42.39c0.61,0.67,1.22,0.66,1.83-0.02c0.38-14.11,0.76-28.23,1.15-42.35
		c0.55-0.7,1.09-0.69,1.63,0.01c0.43,14.11,0.85,28.22,1.27,42.34c0.66,0.9,1.32,0.9,1.98,0c0.3-14.11,0.6-28.23,0.91-42.35
		c0.62-0.61,1.16-0.6,1.62,0.04l3.34,46.62c0,7.59-9.92,10.11-9.92,14.89l0,29.65C-1033.6-434.01-1009.45-459.15-1009.45-489.92z"/>
</g>
<g>
	<path class="st4" d="M-875.81-489.96c0-31.76-25.74-57.51-57.5-57.51c-31.76,0-57.5,25.75-57.5,57.51
		c0,31.33,25.04,56.8,56.2,57.49l0.58-13.81c0.6-4.4-6.91-4.5-7.2-10.34c0-22.88,2.04-34.65,7.19-57.1
		c1.97-8.59,9.34-18.04,8.62-1.8l-0.93,50.96v16.33l-1.39,2.22l0.62,13.21C-898.27-435.87-875.81-460.29-875.81-489.96z"/>
</g>
<path class="st5" d="M-798.5-546c-31.76,0-57.5,25.74-57.5,57.5c0,31.76,25.74,57.5,57.5,57.5s57.5-25.74,57.5-57.5
	C-741-520.26-766.74-546-798.5-546z M-797.08-456.67c-5,0-9.05-3.69-9.05-8.24c0-4.55,4.05-8.24,9.05-8.24c5,0,9.05,3.69,9.05,8.24
	C-788.03-460.36-792.08-456.67-797.08-456.67z M-774.12-473.36c-1.9,1.62-4.89,1.53-6.66-0.2c-6.05-5.89-12.27-8.57-18.48-7.96
	c-7.33,0.72-12.85,5.84-13.76,7.23c-0.88,1.35-2.45,2.09-4.05,2.09c-0.82,0-1.65-0.2-2.41-0.61c-2.24-1.22-2.97-3.85-1.63-5.89
	c2.13-3.25,10.03-10.31,20.85-11.37c6.41-0.63,16.18,0.71,26.38,10.63C-772.12-477.69-772.22-474.98-774.12-473.36z M-763.22-485.11
	c-1.8,1.72-4.78,1.78-6.67,0.14c-9.6-8.34-19.4-12.36-29.11-11.96c-14.25,0.6-24.16,10.54-25.24,11.67
	c-0.93,0.97-2.24,1.47-3.56,1.47c-1.1,0-2.2-0.35-3.1-1.06c-1.96-1.56-2.17-4.27-0.46-6.06c2.21-2.31,14.13-13.86,31.92-14.61
	c12.38-0.52,24.51,4.3,36.05,14.32C-761.49-489.54-761.42-486.82-763.22-485.11z M-759-495.75c-13.05-11.55-26.74-17.02-40.69-16.26
	c-10.4,0.57-19.14,4.57-24.65,7.82c-6.12,3.61-10.01,7.3-10.65,8.02c-0.93,1.08-2.31,1.64-3.71,1.64c-1.02,0-2.04-0.3-2.91-0.91
	c-2.05-1.46-2.41-4.16-0.8-6.03c1.01-1.17,5.5-5.48,12.65-9.75c9.22-5.5,19.29-8.73,29.12-9.34c16.85-1.04,33.07,5.24,48.22,18.65
	c1.87,1.65,1.91,4.37,0.09,6.07C-754.15-494.13-757.14-494.1-759-495.75z"/>
<rect x="-1396.62" y="-428.13" style="fill:none;" width="236.62" height="80.13"/>
<text transform="matrix(1 0 0 1 -1396.6245 -419.6055)"><tspan x="0" y="0" style="font-family:'MyriadPro-Regular'; font-size:12px;">const lightBlue = &quot;#2fc4b2&quot;;</tspan><tspan x="0" y="14.4" style="font-family:'MyriadPro-Regular'; font-size:12px;">const darkBlue = &quot;#12947f&quot;;</tspan><tspan x="0" y="28.8" style="font-family:'MyriadPro-Regular'; font-size:12px;">const orange = &quot;#f17808&quot;;</tspan><tspan x="0" y="43.2" style="font-family:'MyriadPro-Regular'; font-size:12px;">const red = &quot;#e71414&quot;;</tspan></text>
<rect x="-1125.88" y="-417.5" style="fill:none;" width="382.88" height="56.25"/>
<text transform="matrix(1 0 0 1 -1125.8755 -376.5317)"><tspan x="0" y="0" class="st0" style="font-family:'Newcastle-BasicClean'; font-size:37px;">RESTAURANT </tspan><tspan x="267.4" y="0" class="st1" style="font-family:'GotchaStandup'; font-size:53px;">digital</tspan></text>
<g>
	<g>
		<g>
			<path class="st0" d="M-316.74-208l-107.78,0c-15.61,0-28.38-12.77-28.38-28.38l0-284.39c0-15.61,12.77-28.38,28.38-28.38h107.78
				c15.61,0,28.38,12.77,28.38,28.38l0,284.39C-288.36-220.77-301.13-208-316.74-208z"/>
			<rect x="-445.02" y="-507.95" class="st6" width="148.86" height="257.85"/>
		</g>
		<g>
			
				<ellipse transform="matrix(0.4296 -0.903 0.903 0.4296 -4.4783 -465.3902)" class="st7" cx="-370.63" cy="-229.15" rx="12.02" ry="12.02"/>
			<g>
				<g>
					<path class="st7" d="M-357.55-526.06h-26.16c-0.61,0-1.12-0.5-1.12-1.12l0,0c0-0.61,0.5-1.12,1.12-1.12h26.16
						c0.61,0,1.12,0.5,1.12,1.12l0,0C-356.43-526.56-356.93-526.06-357.55-526.06z"/>
					<path class="st7" d="M-369.07-538.22c0-0.86-0.7-1.56-1.56-1.56s-1.56,0.7-1.56,1.56c0,0.86,0.7,1.56,1.56,1.56
						S-369.07-537.36-369.07-538.22z"/>
				</g>
				<circle class="st7" cx="-396.53" cy="-527.17" r="2.87"/>
			</g>
		</g>
	</g>
</g>
<g>
	<g>
		<g>
			<path class="st3" d="M-336.2-353.49h-65.97c-0.57,0-1.04-0.46-1.04-1.04v-26.54c-12.92-0.92-22.9-11.53-22.9-24.59
				c0-13.61,11.07-24.68,24.68-24.68c2.62,0,5.22,0.42,7.74,1.26c1.93-11.88,12.17-20.68,24.35-20.68c12.33,0,22.58,8.91,24.4,20.95
				c2.74-1.01,5.6-1.53,8.54-1.53c13.61,0,24.68,11.07,24.68,24.68c0,13.15-10.43,24-23.45,24.64v26.49
				C-335.16-353.96-335.63-353.49-336.2-353.49z M-401.13-355.57h63.89v-26.46c0-0.57,0.46-1.03,1.03-1.04
				c12.37-0.1,22.42-10.23,22.42-22.6c0-12.47-10.14-22.61-22.61-22.61c-3.11,0-6.13,0.63-8.99,1.87c-0.3,0.13-0.65,0.11-0.94-0.06
				c-0.29-0.17-0.47-0.46-0.51-0.79c-1.11-11.65-10.78-20.44-22.5-20.44c-11.56,0-21.22,8.65-22.47,20.13
				c-0.03,0.32-0.22,0.61-0.49,0.77c-0.28,0.17-0.62,0.2-0.92,0.08c-2.65-1.04-5.42-1.56-8.21-1.56
				c-12.47,0-22.61,10.14-22.61,22.61c0,12.27,9.62,22.18,21.89,22.57c0.56,0.02,1.01,0.48,1.01,1.04V-355.57z"/>
		</g>
		<g>
			<path class="st3" d="M-382.73-412.13c-0.57,0-1.04-0.46-1.04-1.04c0-8.74-9.42-13.53-9.52-13.58c-0.51-0.25-0.72-0.88-0.47-1.39
				c0.25-0.51,0.88-0.73,1.39-0.47c0.44,0.22,10.67,5.42,10.67,15.43C-381.69-412.59-382.15-412.13-382.73-412.13z"/>
		</g>
		<g>
			<path class="st3" d="M-354.89-412.13c-0.57,0-1.04-0.46-1.04-1.04c0-10.02,10.24-15.22,10.67-15.43
				c0.51-0.25,1.14-0.05,1.39,0.47c0.26,0.51,0.05,1.14-0.47,1.39c-0.1,0.05-9.52,4.86-9.52,13.58
				C-353.85-412.59-354.32-412.13-354.89-412.13z"/>
		</g>
	</g>
	<g>
		
			<text transform="matrix(1 0 0 1 -434.9111 -315.775)" class="st1" style="font-family:'CaviarDreams'; font-size:31.1272px; letter-spacing:3;">DIGITAL</text>
		
			<text transform="matrix(1 0 0 1 -378.2109 -369.2369)" class="st1" style="font-family:'CaviarDreams'; font-size:36.3151px; letter-spacing:3;">R</text>
	</g>
</g>
<g>
	<g>
		<g>
			<g>
				<path class="st1" d="M-34.9-507.47c-0.17-2.84-1.51-22.17-1.51-22.17l-0.09-0.03l-0.09,0.03l-0.92,17.9c0,0-0.01,0.28-0.29,0.28
					c-0.28,0-0.28-0.28-0.28-0.28l-1.01-17.9l-0.1-0.04l-0.1,0.04l-0.98,17.89c0,0-0.01,0.29-0.26,0.29s-0.27-0.29-0.27-0.29
					l-0.97-17.89l-0.1-0.03l-0.1,0.03l-1.01,17.9c0,0-0.01,0.28-0.28,0.28c-0.27,0-0.29-0.28-0.29-0.28l-0.91-17.9l-0.09-0.03
					l-0.09,0.03c0,0-1.34,19.33-1.51,22.17c-0.02,0.27,0.12,0.44,0.37,0.52c0.84,0.27,2.84,1.34,4.07,4.41
					c1.36,3.16-1.36,40.53-2.09,48.62c-0.18,2.01,0.6,4.86,3.27,6.66l0,0c2.67-1.8,3.45-4.64,3.27-6.66
					c-0.73-8.09-3.45-45.46-2.09-48.62c1.23-3.07,3.23-4.13,4.07-4.41C-35.02-507.03-34.88-507.2-34.9-507.47z M-43.16-454.2
					c0.14-1.58,0.32-2.07,0.32-2.07s-0.23,2.6,0.07,3.96c0.22,1.18,0.68,2.43,2.21,4.35C-42.77-449.75-43.33-452.34-43.16-454.2z
					 M-35.62-507.17c-0.84,0.27-2.84,1.22-4.07,4.29c0,0,0.55-2.26,2.84-4.07c0.32-0.25,1.09-0.78,1.16-1.41
					c0.08-0.7,0.07-1.91,0.03-4.83c0.2,2.6,0.35,4.71,0.4,5.51C-35.23-507.42-35.37-507.25-35.62-507.17z"/>
			</g>
			<g>
				<path class="st1" d="M26.6-454.38c-0.29-4.15-0.87-21.12-0.74-36.93c1.52-16.04,0.85-33.72,1.1-36.55
					c0.26-3.05-2.19-3.55-4.4,0.23c-3.63,6.23-5.33,25.68-1.08,35.74c0.06,0.24,0.11,0.33,0.16,0.56
					c0.94,4.74-0.72,29.11-1.58,36.81c-0.22,2.01,0.5,4.87,3.13,6.72l0,0C25.9-449.54,26.74-452.37,26.6-454.38z M22.13-525.51
					c0,0,0.05-0.44,0.58-1.42c1.29-2.42,2.55-3.23,3.42-2.83c-0.91-0.07-1.7,0.66-2.38,1.54C22.81-527,22.13-525.51,22.13-525.51z
					 M22.55-490.72c-0.52-0.01-0.65-0.56-0.64-0.77c0,0,0.28,0.28,0.7,0.28l2.78,0.06c0.35,0.01,0.32,0.5-0.02,0.49L22.55-490.72z
					 M23.3-448.58c1.57-1.89,2.06-3.14,2.3-4.31c0.33-1.36,0.15-3.96,0.15-3.96s0.17,0.5,0.28,2.08
					C26.16-452.91,25.55-450.34,23.3-448.58z"/>
			</g>
		</g>
		<g>
			<g>
				<path class="st1" d="M-9.13-425.65c-8.52,0-16.79-1.67-24.57-4.96c-7.52-3.18-14.27-7.73-20.07-13.53
					c-5.8-5.8-10.35-12.55-13.53-20.07c-3.29-7.79-4.96-16.05-4.96-24.57c0-8.52,1.67-16.79,4.96-24.57
					c3.18-7.52,7.73-14.27,13.53-20.07c5.8-5.8,12.55-10.35,20.07-13.53c7.79-3.29,16.05-4.96,24.57-4.96s16.79,1.67,24.57,4.96
					c7.52,3.18,14.27,7.73,20.07,13.53c5.8,5.8,10.35,12.55,13.53,20.07c3.29,7.79,4.96,16.05,4.96,24.57
					c0,8.52-1.67,16.79-4.96,24.57c-3.18,7.52-7.73,14.27-13.53,20.07c-5.8,5.8-12.55,10.35-20.07,13.53
					C7.66-427.32-0.61-425.65-9.13-425.65z M-9.13-546.14c-31.63,0-57.35,25.73-57.35,57.35s25.73,57.35,57.35,57.35
					c31.63,0,57.35-25.73,57.35-57.35S22.49-546.14-9.13-546.14z"/>
			</g>
		</g>
	</g>
</g>
<use xlink:href="#New_Symbol_1"  width="164.54" height="341.15" id="XMLID_1_" x="-82.27" y="-170.57" transform="matrix(0.1958 0 0 -0.1958 -8.3528 -488.6449)" style="overflow:visible;"/>
<g>
	<rect x="70.37" y="-503.38" style="fill:none;" width="169.63" height="39.38"/>
	<text transform="matrix(1 0 0 1 70.3721 -475.0044)"><tspan x="0" y="0" class="st0" style="font-family:'CaviarDreams-Bold'; font-size:36.3151px; letter-spacing:3;">R</tspan><tspan x="24.4" y="0" class="st0" style="font-family:'CaviarDreams'; font-size:36.3151px; letter-spacing:3;">digital</tspan></text>
</g>
<use xlink:href="#New_Symbol_1"  width="164.54" height="341.15" id="XMLID_2_" x="-82.27" y="-170.57" transform="matrix(0.743 0 0 -0.743 -353.0182 178.2701)" style="overflow:visible;"/>
<use xlink:href="#New_Symbol_2"  width="163.57" height="340.51" id="XMLID_3_" x="-81.78" y="-170.26" transform="matrix(0.4194 0 0 -0.4194 151.7347 138.411)" style="overflow:visible;"/>
<g>
	<path class="st0" d="M149.88,148.79h-6.74v18.26h-7.38V110h16.19c4.59,0.62,8.46,2.51,11.62,5.67c3.78,3.8,5.67,8.37,5.67,13.69
		c0,5.37-1.89,9.96-5.67,13.76c-2.61,2.61-4.61,4.09-5.99,4.42l12.66,19.5h-8.95L149.88,148.79z M143.14,117.42v23.96h6.74
		c3.28,0,6.09-1.17,8.43-3.51c2.34-2.34,3.51-5.18,3.51-8.5c0-3.3-1.17-6.12-3.51-8.45c-2.34-2.33-5.15-3.49-8.43-3.49H143.14z"/>
</g>
<g>
	<path class="st0" d="M109.3,251.2h-1.6v-3.55c-0.31,0.41-0.64,0.81-1.01,1.19c-1.9,1.9-4.2,2.86-6.9,2.86
		c-2.68,0-4.98-0.95-6.88-2.86s-2.85-4.2-2.85-6.88c0-2.7,0.95-4.99,2.85-6.9s4.2-2.85,6.88-2.85c2.7,0,4.99,0.95,6.9,2.85
		c0.37,0.38,0.7,0.77,1.01,1.19v-13.42h1.6V251.2z M107.71,243.54v-3.16c-0.29-1.56-1.03-2.93-2.22-4.11
		c-1.57-1.57-3.47-2.36-5.69-2.36s-4.12,0.79-5.69,2.36c-1.57,1.57-2.36,3.47-2.36,5.69c0,2.22,0.79,4.12,2.36,5.68
		c1.57,1.57,3.47,2.35,5.69,2.35s4.12-0.79,5.69-2.36C106.67,246.45,107.41,245.08,107.71,243.54z"/>
	<path class="st0" d="M120.53,228.07c0.31,0.31,0.47,0.68,0.47,1.12c0,0.45-0.16,0.83-0.47,1.13c-0.31,0.31-0.69,0.46-1.13,0.46
		s-0.81-0.15-1.13-0.46c-0.31-0.31-0.47-0.69-0.47-1.13c0-0.44,0.16-0.81,0.47-1.12c0.31-0.31,0.69-0.46,1.13-0.46
		S120.22,227.77,120.53,228.07z M120.21,233.78v17.41h-1.6v-17.41H120.21z"/>
	<path class="st0" d="M146.66,247.74c-0.3,0.38-0.62,0.74-0.96,1.1c-1.9,1.9-4.2,2.86-6.9,2.86c-2.68,0-4.98-0.95-6.88-2.86
		s-2.85-4.2-2.85-6.88c0-2.7,0.95-4.99,2.85-6.89s4.2-2.85,6.88-2.85c2.7,0,4.99,0.95,6.9,2.84c0.37,0.38,0.7,0.77,1.01,1.19v-2.46
		h1.6v13.53c0,2.61-0.93,4.85-2.78,6.7c-1.9,1.9-4.2,2.86-6.88,2.86c-2.7,0-5-0.95-6.9-2.86c-0.39-0.39-0.74-0.8-1.05-1.22l1.68-0.6
		c0.18,0.21,0.37,0.42,0.57,0.62c1.57,1.57,3.47,2.36,5.69,2.36c2.21,0,4.1-0.79,5.67-2.36
		C145.75,251.38,146.53,249.69,146.66,247.74z M146.69,240.29c-0.31-1.52-1.04-2.87-2.2-4.02c-1.57-1.57-3.47-2.36-5.69-2.36
		s-4.12,0.79-5.69,2.36c-1.57,1.57-2.36,3.47-2.36,5.69c0,2.22,0.79,4.12,2.36,5.69c1.57,1.57,3.47,2.36,5.69,2.36
		s4.12-0.79,5.69-2.36c1.15-1.15,1.88-2.48,2.2-3.99V240.29z"/>
	<path class="st0" d="M159.61,228.07c0.31,0.31,0.47,0.68,0.47,1.12c0,0.45-0.16,0.83-0.47,1.13c-0.31,0.31-0.69,0.46-1.13,0.46
		s-0.81-0.15-1.13-0.46c-0.31-0.31-0.47-0.69-0.47-1.13c0-0.44,0.16-0.81,0.47-1.12c0.31-0.31,0.69-0.46,1.13-0.46
		S159.29,227.77,159.61,228.07z M159.28,233.78v17.41h-1.6v-17.41H159.28z"/>
	<path class="st0" d="M171.07,233.78v-7.41h1.6v7.41h3.55v1.6h-3.55v15.82h-1.6v-15.82h-3.55v-1.6H171.07z"/>
	<path class="st0" d="M202.89,251.2h-1.6v-3.55c-0.31,0.41-0.64,0.81-1.01,1.19c-1.9,1.9-4.2,2.86-6.9,2.86
		c-2.68,0-4.98-0.95-6.88-2.86s-2.85-4.2-2.85-6.88c0-2.7,0.95-4.99,2.85-6.9s4.2-2.85,6.88-2.85c2.7,0,4.99,0.95,6.9,2.85
		c0.37,0.38,0.7,0.77,1.01,1.19v-2.46h1.6V251.2z M201.3,243.54v-3.16c-0.29-1.56-1.03-2.93-2.22-4.11
		c-1.57-1.57-3.47-2.36-5.69-2.36s-4.12,0.79-5.69,2.36c-1.57,1.57-2.36,3.47-2.36,5.69c0,2.22,0.79,4.12,2.36,5.68
		c1.57,1.57,3.47,2.35,5.69,2.35s4.12-0.79,5.69-2.36C200.26,246.45,201,245.08,201.3,243.54z"/>
	<path class="st0" d="M213.44,222.83v28.37h-1.6v-28.37H213.44z"/>
</g>
</svg> -->

<svg version="1.1" id="Layer_1" xmlns="http://www.w3.org/2000/svg" xmlns:xlink="http://www.w3.org/1999/xlink" x="0px" y="0px"
	 viewBox="0 0 354 112" style="enable-background:new 0 0 354 112;" xml:space="preserve">
<style type="text/css">
	.st0{fill:#FFFFFF;}
	.st1{fill:none;stroke:#FFFFFF;stroke-width:2;stroke-miterlimit:10;}
	.st2{clip-path:url(#SVGID_2_);fill:none;stroke:#FFFFFF;stroke-width:2;stroke-miterlimit:10;}
</style>
<g>
	<path class="st0" d="M87.8,40c4.4,0,8.3,1.6,11.7,4.8c3.4,3.2,5.1,7.1,5.1,11.5c0,3.5-1,6.5-3,9.1s-4.6,4.5-8,5.9
		c-0.1,0-0.2,0.1-0.2,0.3v0.1c0.1,0.1,0.1,0.1,0.1,0.1l11.9,14.6c0.1,0.2,0.3,0.5,0.4,0.8s0.2,0.5,0.3,0.6c0.1,0.1,0.1,0.2,0.1,0.2
		c0,0.1-0.8,0.3-2.3,0.4c-1.5,0.1-2.6,0.2-3.1,0.2c-0.4,0-0.6-0.1-0.8-0.2h-7.4c-0.5-0.1-0.9-0.3-1.2-0.8l-9.7-11.4
		c-0.1-0.1-0.1-0.2-0.3-0.3c-0.1-0.2-0.3-0.3-0.4-0.4c-0.1-0.1-0.3-0.1-0.4-0.1c-0.1,0-0.2,0.3-0.3,0.9v11.3c0,0.4-0.1,0.6-0.4,0.6
		h-9.5c-0.8,0-1.4-0.2-1.7-0.6c-0.3-0.4-0.5-1-0.6-1.9c0-4.1,0-9.4,0.1-15.7c0.1-6.3,0.1-11.1,0.1-14.3c0-0.5,0-2.4-0.1-5.6
		l-0.1-4.8c0.1-3.4,0.3-5.1,0.3-5.2L87.8,40L87.8,40z M91.1,52.8c-1.2-1.8-3.6-2.7-7.2-2.7c-0.7,0-1.6,0-2.9,0.1l-0.6,0.7
		c0,0.6,0,1.5-0.1,2.8s-0.1,2.4-0.1,3.2s0,1.5,0,1.9c0,3.1,0.3,4.8,0.8,5.2h0.8c3.8-0.1,6.5-0.6,8-1.6c1.5-1,2.3-3.1,2.3-6.3
		C92,54.9,91.7,53.8,91.1,52.8z"/>
</g>
<g>
	<path class="st0" d="M63.1,86.7h-2.7v-5.9c-0.5,0.7-1.1,1.4-1.7,2c-3.2,3.2-7,4.8-11.6,4.8c-4.5,0-8.3-1.6-11.5-4.8
		c-3.2-3.2-4.8-7-4.8-11.5c0-4.5,1.6-8.4,4.8-11.6c3.2-3.2,7-4.8,11.5-4.8c4.5,0,8.4,1.6,11.6,4.8c0.6,0.6,1.2,1.3,1.7,2V39.2h2.7
		V86.7z M60.5,73.9v-5.3c-0.5-2.6-1.7-4.9-3.7-6.9c-2.6-2.6-5.8-4-9.5-4s-6.9,1.3-9.5,4c-2.6,2.6-4,5.8-4,9.5c0,3.7,1.3,6.9,4,9.5
		c2.6,2.6,5.8,3.9,9.5,3.9s6.9-1.3,9.5-3.9C58.7,78.8,60,76.5,60.5,73.9z"/>
</g>
<line class="st1" x1="20.9" y1="57" x2="57.7" y2="26.5"/>
<g>
	<g>
		<defs>
			
				<rect id="SVGID_1_" x="17.6" y="24.1" transform="matrix(0.7727 -0.6347 0.6347 0.7727 -32.1661 67.8186)" width="122.1" height="109.5"/>
		</defs>
		<clipPath id="SVGID_2_">
			<use xlink:href="#SVGID_1_"  style="overflow:visible;"/>
		</clipPath>
		<rect x="21.1" y="26.7" class="st2" width="91.9" height="75.8"/>
	</g>
</g>
<g>
	<path class="st0" d="M30.4,11.7c4.1,5.1,3.2,12.6-2,16.7c-5.1,4.1-12.6,3.2-16.7-2s-3.2-12.6,2-16.7S26.3,6.6,30.4,11.7z"/>
	<g>
		<path class="st0" d="M19.8,23.4c3.2,4,2.5,9.9-1.5,13s-9.9,2.5-13-1.5s-2.5-9.9,1.5-13C10.8,18.7,16.6,19.4,19.8,23.4z"/>
		<path class="st0" d="M40.1,7.4c3.2,4,2.5,9.9-1.5,13s-9.9,2.5-13-1.5s-2.5-9.9,1.5-13C31.1,2.7,36.9,3.3,40.1,7.4z"/>
	</g>
	
		<rect x="17.7" y="20.2" transform="matrix(0.7847 -0.6199 0.6199 0.7847 -13.145 26.3008)" class="st0" width="27.1" height="23.8"/>
</g>
<g>
	<path class="st0" d="M128.6,92h-3.2v8.6H122V73.8h7.6c2.1,0.3,4,1.2,5.4,2.7c1.8,1.8,2.7,3.9,2.7,6.4c0,2.5-0.9,4.7-2.7,6.5
		c-1.2,1.2-2.2,1.9-2.8,2.1l5.9,9.2H134L128.6,92z M125.5,77.2v11.2h3.2c1.5,0,2.9-0.6,4-1.7s1.6-2.4,1.6-4c0-1.6-0.6-2.9-1.6-4
		c-1.1-1.1-2.4-1.6-4-1.6L125.5,77.2L125.5,77.2z"/>
	<path class="st0" d="M159.4,73.8v3.5h-11v8.2h11v3.5h-11V97h11v3.5H145V73.8H159.4z"/>
	<path class="st0" d="M174.3,86.8c-1.9-0.6-3.4-1.5-4.6-2.7c-1.2-1.2-1.8-2.6-1.8-4.4c0-1.7,0.6-3.2,1.8-4.4s2.7-1.8,4.4-1.8
		c1.7,0,3.2,0.6,4.4,1.8c0.7,0.7,1.3,1.7,1.7,3.2l-3.1,1.2c-0.4-1-0.7-1.7-1-2c-0.6-0.5-1.2-0.8-2-0.8c-0.8,0-1.4,0.3-2,0.8
		s-0.8,1.2-0.8,2c0,0.8,0.3,1.4,0.8,2c0.6,0.6,1.5,1.2,2.5,1.7c2.1,0.7,3.9,1.8,5.3,3.2c1.6,1.6,2.5,3.6,2.5,5.9s-0.8,4.3-2.4,5.9
		c-1.6,1.6-3.6,2.4-5.9,2.4c-2.3,0-4.3-0.8-5.9-2.5c-1.3-1.3-2.1-3.1-2.5-5.4l3.4-1.2c0.2,2,0.7,3.4,1.6,4.2c1,1,2.1,1.4,3.5,1.4
		s2.5-0.5,3.5-1.4s1.4-2.1,1.4-3.5c0-1.3-0.5-2.5-1.4-3.5C176.7,88.1,175.6,87.3,174.3,86.8z"/>
	<path class="st0" d="M197.4,77.2v23.3h-3.5V77.2h-6.2v-3.5h16v3.5H197.4z"/>
	<path class="st0" d="M219.1,73.8l9.7,26.8h-3.7l-3.4-9.5h-7.1l-3.4,9.5h-3.7l9.7-26.8C217.2,73.8,219.1,73.8,219.1,73.8z
		 M220.4,87.6l-2.3-6.3l-2.3,6.3H220.4z"/>
	<path class="st0" d="M249.6,73.8h3.5v18.9c-0.3,2.2-1.2,4-2.7,5.4c-1.8,1.8-3.9,2.7-6.4,2.7c-2.5,0-4.6-0.9-6.4-2.7
		s-2.7-3.9-2.7-6.4V73.8h3.5v17.9c0,1.5,0.6,2.9,1.6,4c1.1,1.1,2.4,1.7,4,1.7c1.6,0,2.9-0.6,4-1.6s1.6-2.4,1.6-4L249.6,73.8
		L249.6,73.8z"/>
	<path class="st0" d="M268.2,92H265v8.6h-3.5V73.8h7.6c2.1,0.3,4,1.2,5.5,2.7c1.8,1.8,2.7,3.9,2.7,6.4c0,2.5-0.9,4.7-2.7,6.5
		c-1.2,1.2-2.2,1.9-2.8,2.1l5.9,9.2h-4.2L268.2,92z M265,77.2v11.2h3.2c1.5,0,2.9-0.6,4-1.7s1.6-2.4,1.6-4c0-1.6-0.5-2.9-1.6-4
		c-1.1-1.1-2.4-1.6-4-1.6L265,77.2L265,77.2z"/>
	<path class="st0" d="M294.5,73.8l9.7,26.8h-3.7l-3.5-9.5H290l-3.4,9.5h-3.7l9.7-26.8C292.7,73.8,294.5,73.8,294.5,73.8z
		 M295.9,87.6l-2.3-6.3l-2.3,6.3H295.9z"/>
	<path class="st0" d="M311,73.8h3.2l11,19.1V73.8h3.5v26.8h-3l-11.2-19.3v19.3H311V73.8z"/>
	<path class="st0" d="M345.2,77.2v23.3h-3.5V77.2h-6.2v-3.5h16v3.5H345.2z"/>
	<path class="st0" d="M139.7,56.7h-1.5v-3.3c-0.3,0.4-0.6,0.8-0.9,1.1c-1.8,1.8-4,2.7-6.5,2.7c-2.5,0-4.7-0.9-6.5-2.7
		s-2.7-4-2.7-6.5c0-2.5,0.9-4.7,2.7-6.5c1.8-1.8,4-2.7,6.5-2.7c2.5,0,4.7,0.9,6.5,2.7c0.4,0.4,0.7,0.7,0.9,1.1V29.9h1.5V56.7z
		 M138.2,49.4v-3c-0.3-1.5-1-2.8-2.1-3.9c-1.5-1.5-3.3-2.2-5.4-2.2c-2.1,0-3.9,0.7-5.4,2.2c-1.5,1.5-2.2,3.3-2.2,5.4
		s0.7,3.9,2.2,5.4c1.5,1.5,3.3,2.2,5.4,2.2s3.9-0.7,5.4-2.2C137.2,52.2,137.9,50.9,138.2,49.4z"/>
	<path class="st0" d="M150.3,34.8c0.3,0.3,0.4,0.6,0.4,1c0,0.4-0.1,0.8-0.4,1.1c-0.3,0.3-0.6,0.4-1.1,0.4s-0.8-0.1-1.1-0.4
		c-0.3-0.3-0.4-0.7-0.4-1.1c0-0.4,0.1-0.8,0.4-1c0.3-0.3,0.6-0.4,1.1-0.4C149.7,34.4,150,34.5,150.3,34.8z M150,40.2v16.4h-1.5V40.2
		H150z"/>
	<path class="st0" d="M175,53.4c-0.3,0.4-0.6,0.7-0.9,1c-1.8,1.8-4,2.7-6.5,2.7c-2.5,0-4.7-0.9-6.5-2.7c-1.8-1.8-2.7-4-2.7-6.5
		c0-2.5,0.9-4.7,2.7-6.5c1.8-1.8,4-2.7,6.5-2.7c2.5,0,4.7,0.9,6.5,2.7c0.4,0.4,0.7,0.7,0.9,1.1v-2.3h1.5V53c0,2.5-0.9,4.6-2.6,6.3
		c-1.8,1.8-4,2.7-6.5,2.7c-2.5,0-4.7-0.9-6.5-2.7c-0.4-0.4-0.7-0.8-1-1.2l1.6-0.6c0.2,0.2,0.4,0.4,0.5,0.6c1.5,1.5,3.3,2.2,5.4,2.2
		c2.1,0,3.9-0.7,5.4-2.2C174.1,56.8,174.9,55.2,175,53.4z M175,46.4c-0.3-1.4-1-2.7-2.1-3.8c-1.5-1.5-3.3-2.2-5.4-2.2
		c-2.1,0-3.9,0.7-5.4,2.2c-1.5,1.5-2.2,3.3-2.2,5.4s0.7,3.9,2.2,5.4c1.5,1.5,3.3,2.2,5.4,2.2c2.1,0,3.9-0.7,5.4-2.2
		c1.1-1.1,1.8-2.3,2.1-3.8V46.4z"/>
	<path class="st0" d="M187.2,34.8c0.3,0.3,0.4,0.6,0.4,1c0,0.4-0.1,0.8-0.4,1.1c-0.3,0.3-0.6,0.4-1.1,0.4s-0.8-0.1-1.1-0.4
		c-0.3-0.3-0.4-0.7-0.4-1.1c0-0.4,0.1-0.8,0.4-1c0.3-0.3,0.6-0.4,1.1-0.4C186.5,34.4,186.9,34.5,187.2,34.8z M186.9,40.2v16.4h-1.5
		V40.2H186.9z"/>
	<path class="st0" d="M198,40.2v-7h1.5v7h3.4v1.5h-3.4v14.9H198V41.7h-3.4v-1.5H198z"/>
	<path class="st0" d="M228,56.7h-1.5v-3.3c-0.3,0.4-0.6,0.8-0.9,1.1c-1.8,1.8-4,2.7-6.5,2.7c-2.5,0-4.7-0.9-6.5-2.7
		c-1.8-1.8-2.7-4-2.7-6.5c0-2.5,0.9-4.7,2.7-6.5c1.8-1.8,4-2.7,6.5-2.7c2.5,0,4.7,0.9,6.5,2.7c0.4,0.4,0.7,0.7,0.9,1.1v-2.3h1.5
		V56.7z M226.5,49.4v-3c-0.3-1.5-1-2.8-2.1-3.9c-1.5-1.5-3.3-2.2-5.4-2.2c-2.1,0-3.9,0.7-5.4,2.2c-1.5,1.5-2.2,3.3-2.2,5.4
		s0.7,3.9,2.2,5.4c1.5,1.5,3.3,2.2,5.4,2.2c2.1,0,3.9-0.7,5.4-2.2C225.6,52.2,226.2,50.9,226.5,49.4z"/>
	<path class="st0" d="M238,29.9v26.8h-1.5V29.9H238z"/>
</g>
</svg>